<?xml version="1.0" encoding="UTF-8" standalone="no"?>
<svg width="1000" height="500" viewBox="0 0 1000 500" xmlns="http://www.w3.org/2000/svg">
  <style>
    .country { fill: #e0e0e0; stroke: #ffffff; stroke-width: 0.5; }
    .country:hover { fill: #1a2a6c; cursor: pointer; }
    .country-label { font-family: Arial; font-size: 12px; fill: #333; pointer-events: none; }
    .highlight { fill: #1a2a6c; }
  </style>
  
  <!-- World Map Country Paths -->
  <path class="country" id="japan" d="M850 150 C855 145, 865 145, 870 150 C875 155, 875 165, 870 170 C865 175, 855 175, 850 170 C845 165, 845 155, 850 150" data-country="Japan"/>
  <text class="country-label" x="860" y="145">Japan</text>
  
  <path class="country" id="italy" d="M485 165 C490 160, 500 160, 505 165 L507 175 L503 185 L495 190 L490 185 L485 175 Z" data-country="Italy"/>
  <text class="country-label" x="495" y="160">Italy</text>
  
  <path class="country" id="brazil" d="M300 280 L330 270 L350 290 L340 320 L310 330 L290 310 Z" data-country="Brazil"/>
  <text class="country-label" x="320" y="300">Brazil</text>
  
  <path class="country" id="iceland" d="M440 90 C445 85, 455 85, 460 90 C465 95, 465 105, 460 110 C455 115, 445 115, 440 110 C435 105, 435 95, 440 90" data-country="Iceland"/>
  <text class="country-label" x="450" y="85">Iceland</text>
  
  <path class="country" id="newzealand" d="M890 380 C895 375, 905 375, 910 380 C915 385, 915 395, 910 400 C905 405, 895 405, 890 400 C885 395, 885 385, 890 380" data-country="New Zealand"/>
  <text class="country-label" x="900" y="375">New Zealand</text>
  
  <!-- Basic world map outline -->
  <path class="country" d="M50 100 Q200 50 400 100 T750 150 Q850 200 950 150 L950 350 Q850 400 750 350 T400 400 Q200 450 50 400 Z" style="fill: none;"/>
</svg>